# xmcd
#
# Track frame offsets:
#	150
#	11601
#	26770
#	42614
#	54884
#	71489
#	83016
#	98368
#	110061
#	123852
#	137649
#	149944
#
# Disc length: 2143 seconds
#
# Revision: 0
# Processed by: cddbd v1.5.2PL0 Copyright (c) Steve Scherf et al.
# Submitted via: FairStars CD Ripper 2.00
#
DISCID=a3085d0c
DTITLE=Various Artist - Best of Country Favorites [CD3]
DYEAR=2010
DGENRE=Country
TTITLE0=Freddy Fender - Before the Last Teardrop Falls
TTITLE1=Tanya Tucker Feat. T Graham Brown - Don't Go Out With Him
TTITLE2=Doug Stone - I Never Knew Love
TTITLE3=Janie Fricke - Easy to Please
TTITLE4=Exile - Hang On to Your Heart
TTITLE5=Holly Dunn - Are You Ever Going to Love Me
TTITLE6=Boxcar Willie - Kaw Liga
TTITLE7=Lacy J. Dalton - Hillybilly Girl With the Blues
TTITLE8=Mickey Gilley - Don't the Girls Get Prettier at Closing Time
TTITLE9=Doug Stone - Addicted to a Dollar
TTITLE10=T. G. Sheppard - Trying to Beat the Morning Home
TTITLE11=Merle Haggard - Momma Tried
EXTD=
EXTT0=
EXTT1=
EXTT2=
EXTT3=
EXTT4=
EXTT5=
EXTT6=
EXTT7=
EXTT8=
EXTT9=
EXTT10=
EXTT11=
PLAYORDER=
